<svg xmlns="http://www.w3.org/2000/svg" viewBox="0 0 25.973 48">
  <defs>
    <style>
      .cls-1 {
        fill: #fff;
      }
    </style>
  </defs>
  <g id="facebook" transform="translate(-17 -2.9)">
    <path id="Path_46" data-name="Path 46" class="cls-1" d="M42.024,2.9H35.78c-6.993,0-11.538,4.645-11.538,11.838v5.444H18a1,1,0,0,0-1,1v7.892a1,1,0,0,0,1,1h6.243V49.9a1,1,0,0,0,1,1h8.191a1,1,0,0,0,1-1V30.022h7.342a1,1,0,0,0,1-1V21.131a1.024,1.024,0,0,0-1-1H34.382v-4.6c0-2.2.549-3.347,3.4-3.347h4.2a1,1,0,0,0,1-1V3.9A.96.96,0,0,0,42.024,2.9Z"/>
  </g>
</svg>
