<svg xmlns="http://www.w3.org/2000/svg" viewBox="0 0 38.836 43.141">
  <defs>
    <style>
      .cls-1 {
        fill: #fff;
      }
    </style>
  </defs>
  <path id="Path_151" data-name="Path 151" class="cls-1" d="M38.836,33.454a9.907,9.907,0,0,1-17.954,5.511l-2.024-2.842a9.116,9.116,0,0,1-9.214,7.018A9.592,9.592,0,0,1,0,33.54V9.6A9.565,9.565,0,0,1,9.644,0,9.19,9.19,0,0,1,18.9,7.276l2.325-3.143A9.976,9.976,0,0,1,29.191.043a9.52,9.52,0,0,1,9.644,9.386,9.19,9.19,0,0,1-1.808,5.64l-4.65,6.372,4.65,6.372a9.76,9.76,0,0,1,1.808,5.64Z"/>
</svg>
