<svg id="Group_49" data-name="Group 49" xmlns="http://www.w3.org/2000/svg" viewBox="0 0 34.141 38.111">
  <defs>
    <style>
      .cls-1 {
        fill: #00ffd4;
      }
    </style>
  </defs>
  <path id="Path_56" data-name="Path 56" class="cls-1" d="M24.07,954.362a1.191,1.191,0,0,0-1.191,1.191v3.176a1.191,1.191,0,0,0,2.382,0v-3.176A1.191,1.191,0,0,0,24.07,954.362Zm-11.227,4.652A1.191,1.191,0,0,0,12,961.049l2.245,2.245a1.193,1.193,0,1,0,1.687-1.687l-2.245-2.245A1.19,1.19,0,0,0,12.843,959.014Zm22.455,0a1.19,1.19,0,0,0-.844.347l-2.245,2.245a1.193,1.193,0,0,0,1.687,1.687l2.245-2.245a1.191,1.191,0,0,0-.844-2.035ZM24.07,961.508c-5.457,0-10.719,4.247-10.719,10.26a13.139,13.139,0,0,0,2.8,8.039c1.321,1.869,2.357,3.135,2.357,5.124v4.764a2.8,2.8,0,0,0,2.779,2.779h5.558a2.8,2.8,0,0,0,2.779-2.779V984.93c0-1.988,1.036-3.255,2.357-5.124a13.138,13.138,0,0,0,2.8-8.039C34.789,965.755,29.528,961.508,24.07,961.508Zm0,2.382c4.225,0,8.337,3.266,8.337,7.878a10.356,10.356,0,0,1-2.357,6.662c-1.074,1.52-2.35,3.115-2.7,5.31H20.8c-.354-2.195-1.631-3.79-2.7-5.31a10.356,10.356,0,0,1-2.357-6.662C15.734,967.155,19.845,963.89,24.07,963.89Zm-.533.794a7.954,7.954,0,0,0-6.662,10.223,1.195,1.195,0,0,0,2.283-.707,5.543,5.543,0,0,1,4.652-7.146,1.231,1.231,0,0,0,1.1-1.241,1.188,1.188,0,0,0-1.377-1.129ZM8.191,970.242a1.191,1.191,0,1,0,0,2.382h3.176a1.191,1.191,0,1,0,0-2.382Zm28.583,0a1.191,1.191,0,1,0,0,2.382H39.95a1.191,1.191,0,1,0,0-2.382Zm-15.879,15.88h6.352v.794H20.895Zm0,3.176h6.352v.4a.385.385,0,0,1-.4.4H21.292a.385.385,0,0,1-.4-.4Z" transform="translate(-7 -954.362)"/>
</svg>
