<svg xmlns="http://www.w3.org/2000/svg" viewBox="0 0 38.341 33.363">
  <defs>
    <style>
      .cls-1 {
        fill: #ff006f;
      }
    </style>
  </defs>
  <g id="noun_837196_cc" transform="translate(-8.4 -24)">
    <g id="Group_50" data-name="Group 50" transform="translate(8.4 24)">
      <path id="Path_57" data-name="Path 57" class="cls-1" d="M14.394,67.594c.961.961,1.223,1.266,1.223,2.314a2.969,2.969,0,1,0,5.939,0,.873.873,0,0,0-1.747,0,1.221,1.221,0,0,1-1.223,1.223,1.194,1.194,0,0,1-1.223-1.223c0-1.7-.655-2.445-1.747-3.537a1.219,1.219,0,0,1-.349-.873,1.3,1.3,0,0,1,.349-.873,1.186,1.186,0,0,1,1.7,0A.865.865,0,0,0,18.543,63.4a3.005,3.005,0,0,0-4.192,0A3.049,3.049,0,0,0,14.394,67.594Z" transform="translate(-11.294 -45.716)"/>
      <path id="Path_58" data-name="Path 58" class="cls-1" d="M30.348,46.274A.845.845,0,0,0,30.3,47.5a.889.889,0,0,0,.655.262,1.043,1.043,0,0,0,.611-.218c1.747-1.616,3.406-3.188,3.406-6.812A8.433,8.433,0,0,0,26.549,32.3,7.259,7.259,0,0,0,19.3,39.549c0,2.4,1.747,4.1,3.144,5.459a4.118,4.118,0,0,1,.437.437.844.844,0,0,0,1.223,0,.844.844,0,0,0,0-1.223l-.437-.437c-1.266-1.266-2.62-2.533-2.62-4.236a5.507,5.507,0,0,1,5.5-5.5,6.709,6.709,0,0,1,6.681,6.681C33.187,43.61,32.008,44.746,30.348,46.274Z" transform="translate(-14.54 -28.675)"/>
      <circle id="Ellipse_23" data-name="Ellipse 23" class="cls-1" cx="0.961" cy="0.961" r="0.961" transform="translate(36.42 20.568)"/>
      <path id="Path_59" data-name="Path 59" class="cls-1" d="M92.673,57.041a.876.876,0,0,0,.873-.873V49.573a.873.873,0,0,0-1.747,0v6.594A.876.876,0,0,0,92.673,57.041Z" transform="translate(-55.38 -37.914)"/>
      <path id="Path_60" data-name="Path 60" class="cls-1" d="M69.053,41.231a.422.422,0,0,0-.611,0,12.836,12.836,0,0,0,0,18.166.422.422,0,0,0,.611,0,.422.422,0,0,0,0-.611,11.992,11.992,0,0,1,0-16.943A.422.422,0,0,0,69.053,41.231Z" transform="translate(-40.1 -33.633)"/>
      <path id="Path_61" data-name="Path 61" class="cls-1" d="M29.012,44.088a10.95,10.95,0,0,0,3.275-8.166,11.959,11.959,0,0,0-.873-4.5,16.341,16.341,0,0,1,2.314-2.882.432.432,0,0,0-.611-.611,18.971,18.971,0,0,0-2.1,2.533A11.984,11.984,0,0,0,8.4,35.922v2.489a.873.873,0,1,0,1.747,0V35.922a10.2,10.2,0,0,1,20.393,0c0,4.411-2.14,6.376-4.018,8.166-1.485,1.4-2.882,2.707-2.882,4.8a6.747,6.747,0,0,1-13.494,0,.873.873,0,0,0-1.747,0,8.494,8.494,0,0,0,16.987,0c0-1.354,1.048-2.314,2.314-3.537a6.958,6.958,0,0,0,.568-.568,17.424,17.424,0,0,0,4.8,8.6.422.422,0,0,0,.611,0,.422.422,0,0,0,0-.611A16.989,16.989,0,0,1,29.012,44.088Z" transform="translate(-8.4 -24)"/>
      <path id="Path_62" data-name="Path 62" class="cls-1" d="M79.681,49.831a.422.422,0,0,0-.611,0,7.618,7.618,0,0,0,0,10.7.422.422,0,0,0,.611,0,.422.422,0,0,0,0-.611,6.642,6.642,0,0,1,0-9.432A.474.474,0,0,0,79.681,49.831Z" transform="translate(-46.973 -38.477)"/>
    </g>
  </g>
</svg>
