<svg xmlns="http://www.w3.org/2000/svg" viewBox="0 0 65.012 55.724">
  <defs>
    <style>
      .cls-1 {
        fill: none;
        opacity: 0.1;
      }

      .cls-2 {
        fill: #fff;
      }
    </style>
  </defs>
  <g id="twitter" transform="translate(-1 -3)">
    <rect id="Rectangle_20" data-name="Rectangle 20" class="cls-1" width="65.012" height="55.724" transform="translate(1 3)"/>
    <g id="Group_46" data-name="Group 46" transform="translate(9.513 10.739)">
      <path id="Path_47" data-name="Path 47" class="cls-2" d="M36.22,8h2.167l.774.155,1.393.464a4.635,4.635,0,0,1,1.238.619,2.5,2.5,0,0,1,1.084.619,4.1,4.1,0,0,1,.929.774c.31.31.619.31,1.238.155.464-.155,1.084-.31,1.7-.464A9.469,9.469,0,0,0,48.6,9.548a4.027,4.027,0,0,1,1.084-.464.152.152,0,0,0,.155-.155h0v.155a1.844,1.844,0,0,1-.31.929L48.6,11.405a7.852,7.852,0,0,1-.929,1.084c-.31.31-.464.464-.619.464l-.31.31-.155.155h.31l1.084-.31a8.873,8.873,0,0,0,2.167-.619,3.491,3.491,0,0,1,1.084-.31H51.7a8.04,8.04,0,0,1-.464.774,4.234,4.234,0,0,1-.619.774l-.155.155-.929.929A12.569,12.569,0,0,1,47.984,16.2a2.149,2.149,0,0,0-.774,1.548,9.521,9.521,0,0,1-.155,2.012,15.434,15.434,0,0,1-.31,2.477,14.994,14.994,0,0,1-.774,3.1c-.31,1.084-.774,2.167-1.084,3.251-.464,1.084-.929,2.012-1.393,2.941A13.171,13.171,0,0,1,42.1,33.7c-.464.619-.774,1.084-1.238,1.7-.464.464-.929,1.084-1.548,1.7s-1.084.929-1.084,1.084a5.587,5.587,0,0,1-.774.619,13.536,13.536,0,0,1-1.548,1.238,4.124,4.124,0,0,1-1.548.929,8.394,8.394,0,0,1-1.7.929c-.619.31-1.393.619-2.012.929a13.621,13.621,0,0,1-2.322.774A12.894,12.894,0,0,1,26,44.221a13.632,13.632,0,0,1-2.631.31l-1.393.155H18.264a12.333,12.333,0,0,0-1.7-.155q-1.393-.232-2.322-.464c-.619-.155-1.393-.464-2.477-.774a11.615,11.615,0,0,1-2.786-1.238,13.606,13.606,0,0,0-1.548-.774c-.155-.155-.464-.155-.619-.31l-.31-.155H9.441c.619,0,1.238-.155,1.857-.155q.929-.232,2.322-.464c.929-.31,1.7-.464,2.477-.774a13.8,13.8,0,0,0,1.548-.774,10.5,10.5,0,0,0,1.393-.929l.929-.619h-.929a2.723,2.723,0,0,1-.929-.155l-1.393-.464a14.318,14.318,0,0,1-1.548-.774,10.554,10.554,0,0,1-1.084-.774l-.774-.774c-.31-.31-.619-.774-.929-1.084a5.569,5.569,0,0,1-.774-1.393l-.31-.774h1.857a3.436,3.436,0,0,0,1.393-.155c.31,0,.464,0,.464-.155H14.7a.479.479,0,0,1-.31-.155c-.155-.155-.464-.155-1.084-.464a5.569,5.569,0,0,1-1.393-.774,6.553,6.553,0,0,0-1.084-.774L9.751,27.349c-.31-.464-.774-1.084-1.084-1.548a11.757,11.757,0,0,1-.619-1.7,6.583,6.583,0,0,1-.31-1.7v-.929h0l.619.31c.464.155.929.31,1.548.464a4.948,4.948,0,0,0,1.084.155h.464l-.31-.31a3.377,3.377,0,0,0-.774-.619c-.31-.31-.464-.619-.774-.929a3.238,3.238,0,0,1-.619-.929,10.213,10.213,0,0,0-.619-1.7c-.155-.464-.31-1.084-.464-1.548a5.266,5.266,0,0,1-.155-1.548V13.418a4.785,4.785,0,0,1,.31-1.238c.155-.464.31-.929.464-1.548l.31-.774h0l.619.619a10.014,10.014,0,0,0,1.238,1.393,6.125,6.125,0,0,1,1.084.774l.155.155.774.774q.7.464,1.857,1.393a13.368,13.368,0,0,0,2.477,1.548c.929.464,1.857.929,2.941,1.393s1.857.619,2.167.774a12.117,12.117,0,0,0,2.167.464c1.084.155,1.857.31,2.322.31a8.728,8.728,0,0,1,1.084.155h.31v-.774c0-.31-.155-.774-.155-1.393a5.8,5.8,0,0,1,.155-1.7c.155-.464.31-1.084.464-1.548a3.111,3.111,0,0,1,.619-1.238c.155-.31.464-.619.774-1.084a4.671,4.671,0,0,1,1.238-1.238,16.213,16.213,0,0,1,1.7-1.238,15.083,15.083,0,0,1,1.7-.774,4.785,4.785,0,0,1,1.238-.31A.573.573,0,0,0,36.22,8Z" transform="translate(-6.5 -8)"/>
    </g>
  </g>
</svg>
